<svg version="1.1" id="Layer_1" xmlns="http://www.w3.org/2000/svg" xmlns:xlink="http://www.w3.org/1999/xlink" x="0px" y="0px"
	 width="100%" viewBox="0 0 294 256" enable-background="new 0 0 294 256" xml:space="preserve">
<path fill="#000000" opacity="1.000000" stroke="none" 
	d="
M204.000000,257.000000 
	C136.000015,257.000000 68.500015,257.000000 1.000018,257.000000 
	C1.000012,171.666687 1.000012,86.333366 1.000006,1.000041 
	C98.999969,1.000027 196.999939,1.000027 294.999939,1.000014 
	C294.999939,86.333290 294.999939,171.666580 294.999969,256.999939 
	C264.833344,257.000000 234.666672,257.000000 204.000000,257.000000 
M77.517700,211.518616 
	C78.367355,211.419952 79.217010,211.321274 80.823616,211.433701 
	C81.861626,211.423660 82.899628,211.413620 84.743370,211.636139 
	C85.849213,211.561539 86.955063,211.486938 88.937546,211.600357 
	C104.182808,211.546585 119.428055,211.483475 134.673340,211.441803 
	C148.427444,211.404221 162.181595,211.390106 176.857025,211.581329 
	C182.259369,211.501221 187.661728,211.421112 193.975723,211.526901 
	C205.295349,211.464233 216.614975,211.401566 228.541168,211.562820 
	C229.366699,211.391891 230.192215,211.220963 231.749924,211.033875 
	C240.045120,207.790146 245.750870,202.274963 247.589233,192.388550 
	C247.524765,191.841034 247.460297,191.293503 247.640533,189.927704 
	C247.571243,187.381760 247.501953,184.835815 247.642502,181.322617 
	C247.555603,175.195099 247.468704,169.067566 247.636337,162.159210 
	C247.534424,149.499634 247.432526,136.840042 247.548828,123.292679 
	C247.484650,121.775040 247.420471,120.257408 247.623764,118.074226 
	C247.634903,117.125710 247.646027,116.177200 247.770370,114.662582 
	C247.733063,114.473801 247.695740,114.285019 247.834320,113.287285 
	C247.848862,108.959442 247.892487,104.631462 247.872726,100.303772 
	C247.800797,84.555267 237.047134,73.588165 221.372543,73.314835 
	C216.765900,73.234505 212.156677,73.302475 207.153625,73.302475 
	C207.809250,68.535225 205.552155,67.769722 202.175369,68.122871 
	C199.887253,68.362152 198.053879,68.303978 196.478439,65.575668 
	C186.384644,48.095497 171.154846,38.926403 150.846451,39.941708 
	C135.545822,40.706654 122.078499,46.468567 114.004990,60.209209 
	C110.801353,65.661613 107.957481,69.242218 101.337944,68.108505 
	C101.099159,68.067604 100.794411,68.411789 100.105888,68.825706 
	C101.439949,74.063774 97.757561,73.719620 94.215004,73.597069 
	C90.556732,73.470497 86.896729,73.395027 83.237968,73.281487 
	C65.259071,72.723518 53.520050,83.919754 53.476719,101.866371 
	C53.446583,114.347633 53.746655,126.829750 53.709370,139.310928 
	C53.663158,154.779266 53.212646,170.248505 53.324467,185.714554 
	C53.426403,199.814423 63.054443,209.962326 77.517700,211.518616 
z"/>
<path fill="#818181" opacity="1.000000" stroke="none" 
	d="
M83.937637,211.403580 
	C82.899628,211.413620 81.861626,211.423660 80.249298,211.178162 
	C78.756653,211.034714 77.838333,211.146805 76.920006,211.258911 
	C63.054443,209.962326 53.426403,199.814423 53.324467,185.714554 
	C53.212646,170.248505 53.663158,154.779266 53.709370,139.310928 
	C53.746655,126.829750 53.446583,114.347633 53.476719,101.866371 
	C53.520050,83.919754 65.259071,72.723518 83.237968,73.281487 
	C86.896729,73.395027 90.556732,73.470497 94.215004,73.597069 
	C97.757561,73.719620 101.439949,74.063774 100.105888,68.825706 
	C100.794411,68.411789 101.099159,68.067604 101.337944,68.108505 
	C107.957481,69.242218 110.801353,65.661613 114.004990,60.209209 
	C122.078499,46.468567 135.545822,40.706654 150.846451,39.941708 
	C171.154846,38.926403 186.384644,48.095497 196.478439,65.575668 
	C198.053879,68.303978 199.887253,68.362152 202.175369,68.122871 
	C205.552155,67.769722 207.809250,68.535225 207.153625,73.302475 
	C212.156677,73.302475 216.765900,73.234505 221.372543,73.314835 
	C237.047134,73.588165 247.800797,84.555267 247.872726,100.303772 
	C247.892487,104.631462 247.848862,108.959442 247.693726,113.829147 
	C247.487915,114.665329 247.522583,114.951218 247.657166,115.228683 
	C247.646027,116.177200 247.634903,117.125710 247.297119,118.728851 
	C247.090530,120.982475 247.210587,122.581467 247.330627,124.180466 
	C247.432526,136.840042 247.534424,149.499634 247.196136,162.736633 
	C246.981506,169.639328 247.207092,175.964600 247.432663,182.289871 
	C247.501953,184.835815 247.571243,187.381760 247.406128,190.575546 
	C247.246399,191.881470 247.321091,192.539551 247.395767,193.197632 
	C245.750870,202.274963 240.045120,207.790146 231.168762,210.922180 
	C229.703278,210.986603 228.818939,211.162735 227.934601,211.338867 
	C216.614975,211.401566 205.295349,211.464233 193.226547,211.228516 
	C186.963486,211.075287 181.449615,211.220444 175.935730,211.365631 
	C162.181595,211.390106 148.427444,211.404221 134.673340,211.441803 
	C119.428055,211.483475 104.182808,211.546585 88.312424,211.321655 
	C86.437408,211.163177 85.187523,211.283386 83.937637,211.403580 
M161.518097,74.103416 
	C164.001831,73.980782 166.485580,73.858139 169.808289,73.476151 
	C171.696060,72.888153 175.158432,72.418358 175.212906,71.692734 
	C175.536789,67.378548 178.461624,68.272125 180.975525,68.202118 
	C182.897781,68.148590 184.822693,68.191483 186.912125,68.191483 
	C183.900787,57.798431 168.120850,47.064636 151.928955,47.271507 
	C138.565811,47.442242 122.426842,57.950253 120.274391,67.868073 
	C123.776711,67.868073 127.186371,67.868073 131.026047,67.868073 
	C130.212906,73.673515 133.742661,73.416000 137.457947,73.400383 
	C145.255066,73.367607 153.053253,73.594330 161.518097,74.103416 
M240.595291,118.795647 
	C231.852631,116.712257 230.288116,117.446861 226.509705,125.180061 
	C225.784088,126.665169 224.860245,128.071686 223.893448,129.417923 
	C210.422562,148.176025 174.953888,145.184296 167.789169,124.525757 
	C166.694473,121.369362 164.758469,119.814346 161.127792,119.782684 
	C148.145935,119.669479 135.167419,119.078934 122.186272,119.029152 
	C117.475349,119.011093 114.875145,118.217659 114.655022,112.637085 
	C114.432533,106.996613 110.608871,103.253494 105.217850,101.567215 
	C99.695190,99.839752 94.958473,101.400459 91.432869,105.946083 
	C90.038803,107.743469 88.788475,109.864708 88.207260,112.035179 
	C87.060471,116.317795 84.507210,118.014885 80.220116,117.873131 
	C75.728096,117.724594 71.219429,117.999649 66.733192,117.779984 
	C62.658413,117.580444 61.075672,119.164627 61.123913,123.286774 
	C61.272038,135.943054 61.140472,148.602386 61.177273,161.260345 
	C61.184261,163.664978 60.583340,166.745712 64.288895,166.964386 
	C67.612450,167.160492 71.095695,168.069458 72.889160,163.330017 
	C77.861458,150.190048 88.179382,143.730255 101.734283,143.194199 
	C115.310677,142.657303 127.328499,146.349792 133.193008,160.366928 
	C134.723831,164.025833 137.022003,165.163910 140.843903,165.192291 
	C153.661606,165.287460 166.476685,165.892181 179.293228,165.907486 
	C183.769623,165.912827 185.633026,167.044327 186.295639,171.837921 
	C187.684158,181.882797 197.900375,187.221786 205.915741,182.110580 
	C208.875092,180.223495 211.390823,176.638290 212.622955,173.282074 
	C214.431183,168.356613 217.089188,166.430191 222.238373,166.820114 
	C227.040192,167.183746 231.899155,166.720367 236.720459,166.921005 
	C240.858063,167.093216 242.298798,165.365814 242.221771,161.307236 
	C241.991119,149.152359 242.046234,136.992294 241.907486,124.835190 
	C241.886978,123.037910 241.421082,121.245705 240.595291,118.795647 
M149.500000,201.150513 
	C173.321945,201.138336 197.144135,201.184555 220.965714,201.086212 
	C230.957672,201.044983 237.329269,195.322510 238.627090,185.639252 
	C239.835770,176.621277 239.165390,175.839478 230.225250,175.841919 
	C229.225723,175.842194 228.211792,175.954025 227.229156,175.825623 
	C222.940811,175.265350 220.344284,176.724487 218.252441,180.890228 
	C214.351471,188.658707 207.522858,192.866653 198.735413,192.325455 
	C190.688049,191.829803 184.577911,187.535614 181.206421,180.111618 
	C179.497025,176.347504 177.013840,175.049683 173.028534,175.096085 
	C160.369675,175.243515 147.705414,174.993149 135.048447,175.205948 
	C130.333038,175.285233 127.993690,173.986313 127.878418,168.840576 
	C127.719772,161.758438 123.955322,156.645004 117.728500,153.331223 
	C111.261162,149.889450 104.307312,149.238235 97.310532,150.591171 
	C87.039116,152.577286 80.943245,159.517639 80.239357,169.939575 
	C79.975616,173.844635 78.528900,175.356934 74.755554,175.038040 
	C73.102028,174.898285 71.425797,175.014496 69.760101,175.033539 
	C63.413200,175.106110 63.051975,175.470367 62.997913,181.928741 
	C62.981182,183.927536 62.976311,185.927628 63.027245,187.925568 
	C63.197704,194.612442 67.462936,199.664276 74.058418,200.663910 
	C76.841118,201.085663 79.704292,201.083191 82.531281,201.089111 
	C104.520798,201.135162 126.510414,201.136200 149.500000,201.150513 
M195.741394,134.922638 
	C196.740311,134.937164 197.742493,135.011459 198.737640,134.957062 
	C209.978256,134.342529 219.493317,127.146309 220.960602,118.172256 
	C222.451462,109.053902 222.451462,109.056381 231.575531,109.040237 
	C232.740479,109.038177 234.027206,109.295471 235.037064,108.887260 
	C236.112946,108.452354 237.453766,107.539726 237.775558,106.543785 
	C242.015488,93.421539 235.404984,83.924118 221.627045,83.882736 
	C174.317612,83.740639 127.007034,83.715843 79.698700,83.976089 
	C75.844444,83.997292 71.604599,85.889832 68.250702,88.023705 
	C63.228878,91.218765 60.375156,101.628044 63.115475,107.138580 
	C65.729469,112.395096 71.116585,109.115456 75.275833,109.631126 
	C75.438835,109.651329 75.610237,109.599571 75.774376,109.615593 
	C79.056328,109.936073 80.886124,108.506508 82.162483,105.382729 
	C85.505775,97.200256 91.947166,92.554253 100.658150,92.428467 
	C109.307037,92.303581 116.206223,96.625671 119.776939,104.555656 
	C121.817932,109.088348 124.837799,109.574432 128.883118,109.527382 
	C141.207352,109.384026 153.535019,109.471024 165.857117,109.241096 
	C170.515442,109.154190 172.980270,110.603783 173.196442,115.656700 
	C173.474670,122.160316 175.979752,127.887268 182.109360,130.826874 
	C186.091049,132.736404 190.598160,133.550339 195.741394,134.922638 
z"/>
<path fill="#717171" opacity="1.000000" stroke="none" 
	d="
M176.396378,211.473480 
	C181.449615,211.220444 186.963486,211.075287 192.770721,211.135559 
	C187.661728,211.421112 182.259369,211.501221 176.396378,211.473480 
z"/>
<path fill="#888888" opacity="1.000000" stroke="none" 
	d="
M247.537582,181.806244 
	C247.207092,175.964600 246.981506,169.639328 247.068878,163.127045 
	C247.468704,169.067566 247.555603,175.195099 247.537582,181.806244 
z"/>
<path fill="#717171" opacity="1.000000" stroke="none" 
	d="
M84.340500,211.519867 
	C85.187523,211.283386 86.437408,211.163177 87.874100,211.227661 
	C86.955063,211.486938 85.849213,211.561539 84.340500,211.519867 
z"/>
<path fill="#717171" opacity="1.000000" stroke="none" 
	d="
M77.218857,211.388763 
	C77.838333,211.146805 78.756653,211.034714 79.870819,211.072601 
	C79.217010,211.321274 78.367355,211.419952 77.218857,211.388763 
z"/>
<path fill="#717171" opacity="1.000000" stroke="none" 
	d="
M228.237885,211.450836 
	C228.818939,211.162735 229.703278,210.986603 230.802673,210.930252 
	C230.192215,211.220963 229.366699,211.391891 228.237885,211.450836 
z"/>
<path fill="#898989" opacity="1.000000" stroke="none" 
	d="
M247.439728,123.736572 
	C247.210587,122.581467 247.090530,120.982475 247.163376,119.061623 
	C247.420471,120.257408 247.484650,121.775040 247.439728,123.736572 
z"/>
<path fill="#888888" opacity="1.000000" stroke="none" 
	d="
M247.492493,192.793091 
	C247.321091,192.539551 247.246399,191.881470 247.283768,190.984680 
	C247.460297,191.293503 247.524765,191.841034 247.492493,192.793091 
z"/>
<path fill="#898989" opacity="1.000000" stroke="none" 
	d="
M247.713776,114.945633 
	C247.522583,114.951218 247.487915,114.665329 247.605774,114.233620 
	C247.695740,114.285019 247.733063,114.473801 247.713776,114.945633 
z"/>
<path fill="#B1B1B1" opacity="1.000000" stroke="none" 
	d="
M240.878265,119.123398 
	C241.421082,121.245705 241.886978,123.037910 241.907486,124.835190 
	C242.046234,136.992294 241.991119,149.152359 242.221771,161.307236 
	C242.298798,165.365814 240.858063,167.093216 236.720459,166.921005 
	C231.899155,166.720367 227.040192,167.183746 222.238373,166.820114 
	C217.089188,166.430191 214.431183,168.356613 212.622955,173.282074 
	C211.390823,176.638290 208.875092,180.223495 205.915741,182.110580 
	C197.900375,187.221786 187.684158,181.882797 186.295639,171.837921 
	C185.633026,167.044327 183.769623,165.912827 179.293228,165.907486 
	C166.476685,165.892181 153.661606,165.287460 140.843903,165.192291 
	C137.022003,165.163910 134.723831,164.025833 133.193008,160.366928 
	C127.328499,146.349792 115.310677,142.657303 101.734283,143.194199 
	C88.179382,143.730255 77.861458,150.190048 72.889160,163.330017 
	C71.095695,168.069458 67.612450,167.160492 64.288895,166.964386 
	C60.583340,166.745712 61.184261,163.664978 61.177273,161.260345 
	C61.140472,148.602386 61.272038,135.943054 61.123913,123.286774 
	C61.075672,119.164627 62.658413,117.580444 66.733192,117.779984 
	C71.219429,117.999649 75.728096,117.724594 80.220116,117.873131 
	C84.507210,118.014885 87.060471,116.317795 88.207260,112.035179 
	C88.788475,109.864708 90.038803,107.743469 91.432869,105.946083 
	C94.958473,101.400459 99.695190,99.839752 105.217850,101.567215 
	C110.608871,103.253494 114.432533,106.996613 114.655022,112.637085 
	C114.875145,118.217659 117.475349,119.011093 122.186272,119.029152 
	C135.167419,119.078934 148.145935,119.669479 161.127792,119.782684 
	C164.758469,119.814346 166.694473,121.369362 167.789169,124.525757 
	C174.953888,145.184296 210.422562,148.176025 223.893448,129.417923 
	C224.860245,128.071686 225.784088,126.665169 226.509705,125.180061 
	C230.288116,117.446861 231.852631,116.712257 240.878265,119.123398 
z"/>
<path fill="#B1B1B1" opacity="1.000000" stroke="none" 
	d="
M149.000000,201.150848 
	C126.510414,201.136200 104.520798,201.135162 82.531281,201.089111 
	C79.704292,201.083191 76.841118,201.085663 74.058418,200.663910 
	C67.462936,199.664276 63.197704,194.612442 63.027245,187.925568 
	C62.976311,185.927628 62.981182,183.927536 62.997913,181.928741 
	C63.051975,175.470367 63.413200,175.106110 69.760101,175.033539 
	C71.425797,175.014496 73.102028,174.898285 74.755554,175.038040 
	C78.528900,175.356934 79.975616,173.844635 80.239357,169.939575 
	C80.943245,159.517639 87.039116,152.577286 97.310532,150.591171 
	C104.307312,149.238235 111.261162,149.889450 117.728500,153.331223 
	C123.955322,156.645004 127.719772,161.758438 127.878418,168.840576 
	C127.993690,173.986313 130.333038,175.285233 135.048447,175.205948 
	C147.705414,174.993149 160.369675,175.243515 173.028534,175.096085 
	C177.013840,175.049683 179.497025,176.347504 181.206421,180.111618 
	C184.577911,187.535614 190.688049,191.829803 198.735413,192.325455 
	C207.522858,192.866653 214.351471,188.658707 218.252441,180.890228 
	C220.344284,176.724487 222.940811,175.265350 227.229156,175.825623 
	C228.211792,175.954025 229.225723,175.842194 230.225250,175.841919 
	C239.165390,175.839478 239.835770,176.621277 238.627090,185.639252 
	C237.329269,195.322510 230.957672,201.044983 220.965714,201.086212 
	C197.144135,201.184555 173.321945,201.138336 149.000000,201.150848 
z"/>
<path fill="#B1B1B1" opacity="1.000000" stroke="none" 
	d="
M195.305634,134.888885 
	C190.598160,133.550339 186.091049,132.736404 182.109360,130.826874 
	C175.979752,127.887268 173.474670,122.160316 173.196442,115.656700 
	C172.980270,110.603783 170.515442,109.154190 165.857117,109.241096 
	C153.535019,109.471024 141.207352,109.384026 128.883118,109.527382 
	C124.837799,109.574432 121.817932,109.088348 119.776939,104.555656 
	C116.206223,96.625671 109.307037,92.303581 100.658150,92.428467 
	C91.947166,92.554253 85.505775,97.200256 82.162483,105.382729 
	C80.886124,108.506508 79.056328,109.936073 75.774376,109.615593 
	C75.610237,109.599571 75.438835,109.651329 75.275833,109.631126 
	C71.116585,109.115456 65.729469,112.395096 63.115475,107.138580 
	C60.375156,101.628044 63.228878,91.218765 68.250702,88.023705 
	C71.604599,85.889832 75.844444,83.997292 79.698700,83.976089 
	C127.007034,83.715843 174.317612,83.740639 221.627045,83.882736 
	C235.404984,83.924118 242.015488,93.421539 237.775558,106.543785 
	C237.453766,107.539726 236.112946,108.452354 235.037064,108.887260 
	C234.027206,109.295471 232.740479,109.038177 231.575531,109.040237 
	C222.451462,109.056381 222.451462,109.053902 220.960602,118.172256 
	C219.493317,127.146309 209.978256,134.342529 198.737640,134.957062 
	C197.742493,135.011459 196.740311,134.937164 195.305634,134.888885 
z"/>
<path fill="#020202" opacity="1.000000" stroke="none" 
	d="
M160.851013,73.714523 
	C153.053253,73.594330 145.255066,73.367607 137.457947,73.400383 
	C133.742661,73.416000 130.212906,73.673515 131.026047,67.868073 
	C127.186371,67.868073 123.776711,67.868073 120.274391,67.868073 
	C122.426842,57.950253 138.565811,47.442242 151.928955,47.271507 
	C168.120850,47.064636 183.900787,57.798431 186.912125,68.191483 
	C184.822693,68.191483 182.897781,68.148590 180.975525,68.202118 
	C178.461624,68.272125 175.536789,67.378548 175.212906,71.692734 
	C175.158432,72.418358 171.696060,72.888153 169.003204,73.497742 
	C165.749100,73.584396 163.300049,73.649460 160.851013,73.714523 
z"/>
<path fill="#888888" opacity="1.000000" stroke="none" 
	d="
M161.184555,73.908966 
	C163.300049,73.649460 165.749100,73.584396 168.583725,73.627419 
	C166.485580,73.858139 164.001831,73.980782 161.184555,73.908966 
z"/>
</svg>