<?xml version="1.0" standalone="no"?>
<!DOCTYPE svg PUBLIC "-//W3C//DTD SVG 20010904//EN"
 "http://www.w3.org/TR/2001/REC-SVG-20010904/DTD/svg10.dtd">
<svg version="1.0" xmlns="http://www.w3.org/2000/svg"
 width="294.000000pt" height="256.000000pt" viewBox="0 0 294.000000 256.000000"
 preserveAspectRatio="xMidYMid meet">

<g transform="translate(0.000000,256.000000) scale(0.100000,-0.100000)"
fill="#000000" stroke="none">
<path d="M0 1280 l0 -1280 1470 0 1470 0 0 1280 0 1280 -1470 0 -1470 0 0
-1280z m1530 880 c11 -7 3 -10 -30 -10 -25 0 -52 -5 -60 -10 -8 -5 -10 -10 -5
-10 6 0 3 -5 -5 -10 -11 -7 -8 -10 15 -9 17 0 24 3 18 6 -28 11 -10 23 33 23
25 0 55 5 66 11 28 15 112 -4 188 -42 67 -33 157 -121 188 -183 22 -44 25 -46
67 -46 45 0 69 -15 40 -26 -34 -13 9 -24 97 -24 94 0 129 -7 106 -21 -7 -5
-31 -8 -53 -8 -33 0 -36 2 -20 10 17 8 17 9 -5 4 -14 -2 -45 -5 -69 -5 -24 0
-41 -3 -37 -7 4 -4 28 -6 54 -6 l47 1 -50 -7 c-54 -8 -108 0 -87 13 17 10 15
26 -3 26 -9 0 -12 -6 -9 -15 4 -9 0 -15 -7 -15 -8 0 -6 -5 6 -12 11 -7 66 -13
124 -14 57 -1 108 -7 114 -13 7 -7 -203 -11 -733 -11 -409 0 -746 -2 -748 -5
-3 -3 333 -5 746 -5 642 0 752 2 752 14 0 8 -6 17 -12 20 -7 3 0 3 17 0 16 -3
33 -10 36 -16 4 -6 9 -7 13 0 8 14 56 12 56 -3 0 -7 8 -15 18 -17 11 -3 29
-25 40 -50 22 -44 22 -52 22 -559 l0 -516 -31 -46 c-42 -64 -82 -91 -133 -90
-34 1 -37 0 -16 -7 14 -4 -265 -8 -622 -9 -421 -1 -649 2 -653 9 -3 6 -14 10
-23 9 -14 0 -13 -2 3 -10 13 -6 -33 -8 -132 -6 -126 3 -155 6 -171 20 -10 9
-22 17 -27 17 -5 0 -16 7 -26 16 -16 15 -16 17 3 52 11 20 13 28 4 17 -36 -47
-36 -47 -55 -23 -28 36 -42 68 -36 78 3 6 1 10 -4 10 -7 0 -11 43 -11 123 0
102 3 124 15 124 10 0 13 -8 9 -26 -4 -20 -3 -23 5 -11 18 25 13 50 -9 50 -20
0 -20 5 -20 358 1 196 4 363 9 370 4 7 6 -36 5 -95 l-3 -108 13 85 c7 47 18
98 24 113 16 37 39 60 47 47 10 -16 25 -2 18 16 -5 13 -7 13 -14 2 -7 -11 -9
-11 -9 0 0 10 -4 9 -16 -3 -18 -18 -32 -12 -18 8 5 7 -1 1 -14 -13 l-24 -25
15 30 c17 34 70 87 107 105 35 18 59 22 188 27 97 4 112 3 112 -11 0 -9 5 -16
11 -16 6 0 9 7 5 15 -3 9 0 15 8 15 8 0 11 10 8 30 -4 29 -3 30 22 20 14 -5
26 -6 26 -1 0 5 9 7 20 4 12 -3 22 1 26 11 3 9 12 16 20 16 8 0 14 5 14 11 0
5 -4 7 -10 4 -6 -3 -7 1 -3 10 4 12 8 13 13 5 6 -9 9 -9 15 0 4 7 2 15 -4 19
-16 10 50 84 113 127 56 38 171 76 246 82 8 1 22 -3 30 -8z m782 -350 c6 0 8
-7 4 -15 -3 -8 -1 -15 3 -15 5 0 11 5 13 11 2 7 8 6 16 -4 10 -12 7 -14 -25
-10 -21 3 -67 5 -103 5 -69 0 -66 3 13 13 31 4 45 10 41 17 -5 8 -1 9 10 5 10
-4 22 -7 28 -7z"/>
<path d="M1584 2139 c-5 -9 -2 -10 9 -6 9 3 19 2 22 -4 4 -6 -21 -8 -67 -5
l-73 5 77 -12 c42 -7 80 -15 84 -19 4 -5 14 -8 23 -8 11 1 8 6 -9 16 l-25 14
25 -2 c17 -2 25 -9 24 -20 -1 -14 4 -16 22 -12 19 5 23 3 18 -9 -3 -8 0 -18 7
-22 7 -5 10 -3 7 6 -3 8 -1 22 4 32 8 15 6 17 -19 12 -20 -5 -24 -4 -14 3 10
7 2 12 -30 20 -24 5 -51 13 -60 16 -10 4 -20 2 -25 -5z"/>
<path d="M1336 2120 c-19 -6 -19 -7 -1 -14 10 -3 22 -3 28 3 12 12 -4 20 -27
11z"/>
<path d="M1388 2123 c7 -3 16 -2 19 1 4 3 -2 6 -13 5 -11 0 -14 -3 -6 -6z"/>
<path d="M1365 2089 l-20 -21 28 13 c15 7 27 16 27 21 0 13 -14 8 -35 -13z"/>
<path d="M1474 2100 c-53 -8 -126 -37 -172 -68 -32 -22 -62 -18 -62 8 0 24 27
33 38 13 7 -11 14 -13 27 -6 16 9 14 11 -9 17 -31 8 -26 26 7 26 16 0 18 -3 9
-9 -11 -7 -11 -9 1 -14 9 -3 18 0 20 8 14 34 -35 34 -80 -1 -19 -14 -32 -29
-29 -32 3 -3 1 -11 -6 -19 -9 -11 -7 -12 8 -6 17 6 17 5 5 -10 -10 -13 -18
-14 -32 -6 -10 5 -19 7 -19 5 0 -3 9 -10 21 -16 17 -9 25 -8 42 7 19 15 -21
-35 -48 -62 -6 -5 -10 -19 -10 -30 0 -17 8 -20 59 -23 56 -3 58 -4 53 -28 l-4
-24 208 0 c114 0 218 -4 231 -9 22 -8 24 -7 20 25 l-4 34 59 0 c69 0 80 6 56
32 -20 23 -6 24 19 1 10 -9 18 -11 18 -5 0 6 6 12 13 15 6 2 2 3 -9 1 -12 -2
-27 3 -34 11 -7 8 -16 12 -21 10 -5 -3 -14 4 -21 15 -7 11 -30 32 -50 47 -21
14 -35 30 -31 36 3 5 0 7 -8 5 -20 -7 -51 11 -43 24 4 6 3 8 -3 5 -6 -4 -32 0
-59 7 -72 20 -103 23 -160 16z"/>
<path d="M1750 2087 c0 -9 4 -18 9 -21 5 -4 8 1 7 9 -3 21 -16 31 -16 12z"/>
<path d="M1788 2071 c1 -2 -5 -13 -15 -23 -9 -10 -11 -18 -5 -18 6 0 14 5 18
11 4 8 9 7 15 -2 4 -7 11 -10 14 -7 4 4 -1 15 -11 25 -11 10 -18 16 -16 14z"/>
<path d="M1260 2040 c0 -5 5 -10 11 -10 5 0 7 5 4 10 -3 6 -8 10 -11 10 -2 0
-4 -4 -4 -10z"/>
<path d="M1830 2033 c0 -6 -10 -15 -22 -19 -21 -6 -21 -7 -2 -17 10 -6 25 -12
32 -13 7 -1 21 -13 32 -26 14 -16 19 -19 20 -8 0 13 1 13 10 0 5 -8 11 -12 14
-9 3 3 -14 27 -39 55 -24 27 -44 44 -45 37z m36 -39 c13 -14 24 -27 24 -30 0
-8 -49 30 -50 38 0 4 -8 5 -17 2 -15 -5 -16 -4 -3 5 20 14 19 15 46 -15z"/>
<path d="M1157 1983 c-14 -13 -6 -25 8 -13 11 9 15 9 15 1 0 -18 -51 -82 -60
-76 -9 5 -20 -18 -20 -41 0 -8 5 -14 11 -14 5 0 7 5 4 11 -7 11 40 60 49 51 3
-3 6 2 6 11 0 10 9 25 19 34 19 15 19 17 3 29 -20 15 -26 17 -35 7z"/>
<path d="M1918 1903 c7 -3 16 -2 19 1 4 3 -2 6 -13 5 -11 0 -14 -3 -6 -6z"/>
<path d="M1156 1881 c-4 -6 0 -11 8 -11 9 0 16 -7 16 -16 0 -13 3 -14 15 -4 8
7 32 10 55 8 22 -2 40 0 40 4 0 5 -24 8 -53 8 -29 0 -58 5 -64 11 -8 8 -13 8
-17 0z"/>
<path d="M1909 1877 c6 -8 8 -17 4 -20 -3 -4 -1 -7 5 -7 14 0 14 2 6 24 -3 9
-11 16 -16 16 -7 0 -6 -5 1 -13z"/>
<path d="M1930 1880 c0 -13 41 -23 76 -17 22 3 19 4 -13 6 -24 0 -43 6 -43 11
0 6 -4 10 -10 10 -5 0 -10 -4 -10 -10z"/>
<path d="M1031 1854 c0 -11 3 -14 6 -6 3 7 2 16 -1 19 -3 4 -6 -2 -5 -13z"/>
<path d="M1051 1853 c0 -13 2 -14 6 -4 4 11 7 11 14 0 4 -7 11 -10 16 -6 4 5
1 12 -7 17 -22 14 -30 12 -29 -7z"/>
<path d="M1800 1860 c-44 -7 -45 -7 -8 -8 20 -1 45 -5 55 -8 15 -5 15 -4 3 5
-12 9 -11 11 8 11 12 0 22 -4 22 -10 0 -5 4 -10 10 -10 5 0 7 7 4 15 -6 16
-20 16 -94 5z"/>
<path d="M1150 1850 c0 -5 5 -10 11 -10 5 0 7 5 4 10 -3 6 -8 10 -11 10 -2 0
-4 -4 -4 -10z"/>
<path d="M1988 1843 c6 -2 18 -2 25 0 6 3 1 5 -13 5 -14 0 -19 -2 -12 -5z"/>
<path d="M1016 1815 c-3 -8 -1 -15 3 -15 5 0 11 7 15 15 3 8 1 15 -3 15 -5 0
-11 -7 -15 -15z"/>
<path d="M823 1813 c26 -2 68 -2 95 0 26 2 4 3 -48 3 -52 0 -74 -1 -47 -3z"/>
<path d="M1458 1813 c12 -2 32 -2 45 0 12 2 2 4 -23 4 -25 0 -35 -2 -22 -4z"/>
<path d="M1601 1816 c2 -2 31 -6 64 -9 37 -3 51 -2 35 3 -25 8 -107 13 -99 6z"/>
<path d="M695 1800 c-17 -8 -17 -9 7 -7 15 1 24 5 22 9 -3 4 -6 8 -7 7 -1 0
-11 -4 -22 -9z"/>
<path d="M1340 1799 c14 -4 79 -7 145 -7 66 0 113 2 105 4 -31 6 -274 10 -250
3z"/>
<path d="M748 1793 c7 -3 16 -2 19 1 4 3 -2 6 -13 5 -11 0 -14 -3 -6 -6z"/>
<path d="M843 1793 c4 -3 42 -7 85 -8 44 -1 66 2 52 6 -33 9 -145 11 -137 2z"/>
<path d="M1288 1783 c7 -3 16 -2 19 1 4 3 -2 6 -13 5 -11 0 -14 -3 -6 -6z"/>
<path d="M1728 1783 c6 -2 18 -2 25 0 6 3 1 5 -13 5 -14 0 -19 -2 -12 -5z"/>
<path d="M625 1760 c-14 -16 -16 -23 -7 -32 9 -9 12 -9 13 0 2 21 4 27 12 40
12 19 2 14 -18 -8z"/>
<path d="M666 1771 c-4 -5 0 -12 6 -14 8 -4 7 -6 -3 -6 -9 -1 -20 -8 -23 -16
-5 -14 -1 -13 24 1 16 10 27 21 24 25 -2 4 4 10 13 12 12 3 8 5 -9 6 -15 0
-29 -3 -32 -8z"/>
<path d="M1320 1771 c-14 -4 36 -5 110 -3 182 4 204 9 45 10 -71 0 -141 -3
-155 -7z"/>
<path d="M743 1763 c9 -2 23 -2 30 0 6 3 -1 5 -18 5 -16 0 -22 -2 -12 -5z"/>
<path d="M973 1763 c9 -2 23 -2 30 0 6 3 -1 5 -18 5 -16 0 -22 -2 -12 -5z"/>
<path d="M1718 1763 c7 -3 16 -2 19 1 4 3 -2 6 -13 5 -11 0 -14 -3 -6 -6z"/>
<path d="M710 1740 c0 -5 4 -10 9 -10 6 0 13 5 16 10 3 6 -1 10 -9 10 -9 0
-16 -4 -16 -10z"/>
<path d="M666 1715 c-11 -8 -15 -15 -10 -15 6 0 19 7 30 15 10 8 15 14 9 14
-5 0 -19 -6 -29 -14z"/>
<path d="M2335 1710 c3 -5 8 -10 11 -10 2 0 4 5 4 10 0 6 -5 10 -11 10 -5 0
-7 -4 -4 -10z"/>
<path d="M2406 1706 c4 -11 1 -16 -10 -16 -14 0 -14 -4 5 -29 16 -22 19 -33
11 -47 -9 -16 -12 -16 -16 -4 -2 8 -7 22 -9 30 -3 8 -6 3 -6 -12 -1 -16 4 -28
9 -28 6 0 11 -19 11 -42 l2 -43 6 45 c7 51 18 73 32 65 10 -7 11 1 3 33 -4 12
-10 22 -14 22 -5 0 -6 -10 -4 -22 l5 -23 -13 23 c-9 19 -9 25 1 31 9 6 8 11
-4 21 -13 11 -15 10 -9 -4z"/>
<path d="M611 1644 c0 -11 3 -14 6 -6 3 7 2 16 -1 19 -3 4 -6 -2 -5 -13z"/>
<path d="M946 1631 c-4 -6 -1 -11 6 -11 11 0 10 -2 0 -9 -11 -7 -10 -10 3 -15
24 -9 32 -7 15 4 -11 7 -7 10 18 10 17 0 32 -4 32 -8 0 -4 17 -8 38 -9 28 0
32 1 17 7 l-20 9 20 1 c20 1 20 1 0 9 -11 4 -40 6 -63 3 -29 -3 -47 -1 -52 8
-5 9 -9 9 -14 1z"/>
<path d="M988 1633 c7 -3 16 -2 19 1 4 3 -2 6 -13 5 -11 0 -14 -3 -6 -6z"/>
<path d="M600 1618 c-6 -54 -6 -137 0 -129 8 14 13 131 6 131 -4 0 -6 -1 -6
-2z"/>
<path d="M570 1558 c-3 -26 -1 -43 3 -39 5 5 7 26 5 47 l-3 39 -5 -47z"/>
<path d="M865 1580 c-10 -11 -14 -20 -9 -20 5 0 15 9 22 20 7 11 11 20 9 20
-2 0 -12 -9 -22 -20z"/>
<path d="M967 1580 c-16 -5 -35 -14 -43 -21 -11 -9 -17 -9 -28 0 -11 10 -16 8
-21 -8 -7 -23 -25 -29 -25 -8 0 7 -7 4 -15 -7 -8 -11 -15 -27 -14 -35 0 -10 4
-7 9 7 5 12 11 22 14 22 2 0 2 -10 -1 -22 -5 -22 -4 -22 16 2 11 14 21 29 21
34 0 4 7 6 15 3 8 -4 27 0 42 8 15 8 41 15 56 15 16 0 26 4 22 10 -7 11 -10
11 -48 0z"/>
<path d="M1120 1582 c0 -4 12 -18 26 -31 26 -25 27 -33 8 -98 -5 -19 -2 -23
15 -23 13 0 21 6 21 18 0 14 -2 15 -10 2 -15 -24 -20 -6 -8 28 11 27 10 37 -6
67 -17 31 -46 55 -46 37z"/>
<path d="M1060 1566 c28 -17 50 -21 35 -7 -6 5 -21 12 -35 15 l-25 7 25 -15z"/>
<path d="M2442 1560 c0 -14 2 -19 5 -12 2 6 2 18 0 25 -3 6 -5 1 -5 -13z"/>
<path d="M1115 1541 c-10 -17 4 -31 23 -24 14 6 15 4 4 -9 -8 -9 -9 -19 -4
-22 6 -3 12 3 15 14 6 22 -27 58 -38 41z"/>
<path d="M2376 1490 c-8 -44 -8 -50 5 -50 5 0 7 5 4 10 -4 6 -1 17 5 25 8 9 8
20 2 31 -7 13 -10 10 -16 -16z"/>
<path d="M2421 1504 c0 -11 3 -14 6 -6 3 7 2 16 -1 19 -3 4 -6 -2 -5 -13z"/>
<path d="M2441 1504 c0 -11 3 -14 6 -6 3 7 2 16 -1 19 -3 4 -6 -2 -5 -13z"/>
<path d="M1190 1481 c0 -6 4 -13 10 -16 6 -3 7 1 4 9 -7 18 -14 21 -14 7z"/>
<path d="M790 1470 c-13 -8 -12 -10 3 -10 9 0 17 5 17 10 0 12 -1 12 -20 0z"/>
<path d="M600 1456 c0 -9 -4 -16 -10 -16 -5 0 -10 5 -10 12 0 6 -2 9 -4 7 -3
-2 -1 -20 3 -39 7 -29 9 -32 15 -15 4 11 12 28 17 37 5 11 5 19 -1 23 -6 3
-10 -1 -10 -9z"/>
<path d="M720 1466 c0 -9 30 -14 35 -6 4 6 -3 10 -14 10 -12 0 -21 -2 -21 -4z"/>
<path d="M1303 1463 c43 -2 110 -2 150 0 40 1 5 3 -78 3 -82 0 -115 -2 -72 -3z"/>
<path d="M1644 1461 c26 -4 41 -12 46 -25 6 -19 7 -19 13 -1 10 24 5 28 -50
30 -45 2 -45 2 -9 -4z"/>
<path d="M2237 1456 c9 -5 37 -6 64 -3 32 4 49 2 53 -6 2 -7 5 -6 5 4 1 13
-11 15 -68 15 -45 -1 -64 -4 -54 -10z"/>
<path d="M816 1444 c-3 -8 0 -22 8 -29 12 -12 15 -12 20 0 6 17 -2 45 -14 45
-4 0 -11 -7 -14 -16z"/>
<path d="M1200 1438 c0 -5 44 -7 98 -6 100 1 88 5 -31 10 -37 2 -67 0 -67 -4z"/>
<path d="M2216 1435 c4 -8 8 -15 10 -15 2 0 4 7 4 15 0 8 -4 15 -10 15 -5 0
-7 -7 -4 -15z"/>
<path d="M617 1425 c-4 -8 -2 -17 3 -20 6 -4 10 3 10 14 0 25 -6 27 -13 6z"/>
<path d="M685 1430 c28 -5 66 -8 85 -8 28 1 25 2 -15 8 -27 5 -66 8 -85 8 -28
-1 -25 -2 15 -8z"/>
<path d="M1671 1424 c0 -11 3 -14 6 -6 3 7 2 16 -1 19 -3 4 -6 -2 -5 -13z"/>
<path d="M2240 1430 c0 -5 5 -10 11 -10 5 0 7 5 4 10 -3 6 -8 10 -11 10 -2 0
-4 -4 -4 -10z"/>
<path d="M2407 1422 c1 -8 3 -18 3 -23 0 -6 5 -7 10 -4 6 3 10 16 10 28 0 16
-3 18 -9 8 -5 -7 -11 -9 -13 -5 -3 5 -3 3 -1 -4z"/>
<path d="M1151 1404 c0 -11 3 -14 6 -6 3 7 2 16 -1 19 -3 4 -6 -2 -5 -13z"/>
<path d="M1258 1413 c34 -2 90 -2 125 0 34 2 6 3 -63 3 -69 0 -97 -1 -62 -3z"/>
<path d="M1634 1411 c3 -5 -1 -12 -10 -15 -9 -4 -14 -9 -11 -13 8 -7 37 15 37
28 0 5 -5 9 -11 9 -5 0 -8 -4 -5 -9z"/>
<path d="M683 1403 c26 -2 67 -2 90 0 23 2 2 3 -48 3 -49 0 -68 -1 -42 -3z"/>
<path d="M2305 1400 c19 -8 103 -14 94 -6 -2 2 -29 6 -59 9 -34 3 -47 2 -35
-3z"/>
<path d="M2437 1403 c-4 -3 -7 -15 -7 -25 0 -11 -4 -16 -10 -13 -5 3 -10 -3
-10 -14 0 -12 4 -21 9 -21 5 0 11 -8 13 -17 2 -10 7 6 12 36 7 53 5 67 -7 54z"/>
<path d="M1218 1393 c12 -2 32 -2 45 0 12 2 2 4 -23 4 -25 0 -35 -2 -22 -4z"/>
<path d="M1378 1393 c12 -2 32 -2 45 0 12 2 2 4 -23 4 -25 0 -35 -2 -22 -4z"/>
<path d="M1701 1383 c-1 -26 30 -103 41 -103 13 0 9 22 -6 39 -8 9 -19 32 -24
51 -7 25 -10 29 -11 13z"/>
<path d="M2247 1393 c-3 -5 -1 -17 4 -28 4 -11 8 -15 8 -8 1 6 4 18 7 27 6 16
-11 23 -19 9z"/>
<path d="M1538 1383 c12 -2 32 -2 45 0 12 2 2 4 -23 4 -25 0 -35 -2 -22 -4z"/>
<path d="M1650 1385 c0 -2 9 -9 20 -15 15 -8 20 -8 20 3 0 7 -9 13 -20 14 -11
1 -20 0 -20 -2z"/>
<path d="M2211 1374 c0 -11 3 -14 6 -6 3 7 2 16 -1 19 -3 4 -6 -2 -5 -13z"/>
<path d="M545 1359 c-3 -13 -4 -109 -3 -214 l3 -190 5 205 4 205 6 -205 6
-205 2 200 c2 186 -7 267 -23 204z"/>
<path d="M584 1145 c0 -132 2 -185 3 -117 2 68 2 176 0 240 -1 64 -3 9 -3
-123z"/>
<path d="M2230 1348 c0 -9 5 -20 10 -23 13 -8 13 5 0 25 -8 13 -10 13 -10 -2z"/>
<path d="M1670 1340 c0 -5 5 -10 10 -10 6 0 10 5 10 10 0 6 -4 10 -10 10 -5 0
-10 -4 -10 -10z"/>
<path d="M2195 1340 c-3 -5 -1 -10 4 -10 6 0 11 5 11 10 0 6 -2 10 -4 10 -3 0
-8 -4 -11 -10z"/>
<path d="M1702 1288 c12 -21 26 -38 31 -38 13 0 7 11 -24 43 l-31 32 24 -37z"/>
<path d="M2210 1300 c-8 -5 -12 -12 -9 -15 4 -3 12 1 19 10 14 17 11 19 -10 5z"/>
<path d="M2164 1267 c1 -12 -3 -25 -8 -29 -6 -4 -8 -10 -4 -13 3 -3 18 5 33
17 l27 24 -25 11 c-22 10 -24 9 -23 -10z m26 -7 c0 -5 -4 -10 -10 -10 -5 0
-10 5 -10 10 0 6 5 10 10 10 6 0 10 -4 10 -10z"/>
<path d="M1776 1263 l21 -18 -21 -18 c-21 -19 -21 -19 6 -3 28 17 45 13 121
-25 10 -6 17 -5 17 0 0 5 -17 15 -37 21 -21 7 -58 23 -83 37 -28 15 -37 17
-24 6z"/>
<path d="M2432 1215 c-1 -45 2 -65 7 -55 5 9 6 40 1 70 l-8 55 0 -70z"/>
<path d="M2090 1239 c-25 -14 -28 -18 -10 -13 26 7 72 35 55 33 -6 -1 -26 -10
-45 -20z"/>
<path d="M1745 1240 c-3 -5 -2 -10 4 -10 5 0 13 5 16 10 3 6 2 10 -4 10 -5 0
-13 -4 -16 -10z"/>
<path d="M1792 1211 c-11 -6 -10 -10 4 -15 9 -3 19 -4 22 -1 3 3 -1 5 -9 5
-11 0 -11 2 1 10 8 5 11 10 5 10 -5 0 -16 -4 -23 -9z"/>
<path d="M2028 1213 c7 -3 16 -2 19 1 4 3 -2 6 -13 5 -11 0 -14 -3 -6 -6z"/>
<path d="M2120 1209 c0 -5 5 -7 10 -4 6 3 10 8 10 11 0 2 -4 4 -10 4 -5 0 -10
-5 -10 -11z"/>
<path d="M1833 1196 c0 -8 6 -12 14 -9 7 3 13 9 13 14 0 5 -6 9 -13 9 -8 0
-14 -6 -14 -14z"/>
<path d="M1997 1199 c7 -7 15 -10 18 -7 3 3 -2 9 -12 12 -14 6 -15 5 -6 -5z"/>
<path d="M2075 1201 c-3 -5 -2 -12 3 -15 5 -3 9 1 9 9 0 17 -3 19 -12 6z"/>
<path d="M1878 1173 c6 -2 18 -2 25 0 6 3 1 5 -13 5 -14 0 -19 -2 -12 -5z"/>
<path d="M2028 1173 c6 -2 18 -2 25 0 6 3 1 5 -13 5 -14 0 -19 -2 -12 -5z"/>
<path d="M1938 1163 c12 -2 32 -2 45 0 12 2 2 4 -23 4 -25 0 -35 -2 -22 -4z"/>
<path d="M956 1115 c-5 -13 -2 -14 17 -4 32 17 33 19 10 19 -12 0 -23 -7 -27
-15z"/>
<path d="M1048 1123 c6 -2 18 -2 25 0 6 3 1 5 -13 5 -14 0 -19 -2 -12 -5z"/>
<path d="M1064 1101 c4 -5 0 -12 -6 -14 -8 -3 -6 -6 5 -6 9 -1 17 6 17 14 0 8
-5 15 -11 15 -5 0 -8 -4 -5 -9z"/>
<path d="M845 1080 c-16 -11 -25 -20 -19 -20 5 0 16 6 22 12 10 10 15 10 22
-2 5 -8 10 -11 10 -6 0 5 6 4 13 -2 7 -6 19 -7 26 -3 8 6 2 10 -19 14 -17 4
-29 11 -25 17 9 14 4 13 -30 -10z"/>
<path d="M920 1085 c33 -19 50 -18 26 0 -11 8 -27 15 -35 15 -10 -1 -7 -6 9
-15z"/>
<path d="M1143 1093 c9 -2 23 -2 30 0 6 3 -1 5 -18 5 -16 0 -22 -2 -12 -5z"/>
<path d="M988 1083 c12 -2 30 -2 40 0 9 3 -1 5 -23 4 -22 0 -30 -2 -17 -4z"/>
<path d="M1223 1065 c15 -13 27 -27 27 -30 0 -3 2 -5 5 -5 3 0 8 0 13 0 4 0
-8 14 -27 30 -18 17 -36 30 -40 30 -3 0 6 -12 22 -25z"/>
<path d="M1110 1070 c8 -5 22 -9 30 -9 10 0 8 3 -5 9 -27 12 -43 12 -25 0z"/>
<path d="M786 1029 c-19 -23 -21 -36 -3 -20 8 6 16 9 18 7 2 -2 9 2 16 9 9 10
9 14 -1 18 -7 3 -20 -3 -30 -14z"/>
<path d="M807 997 c-34 -30 -47 -49 -46 -67 l1 -25 7 25 c4 14 13 24 20 22 6
-1 14 5 18 14 3 9 20 30 36 45 47 45 18 33 -36 -14z"/>
<path d="M1218 1013 c15 -16 29 -24 31 -19 2 5 -6 18 -19 28 -34 28 -42 21
-12 -9z"/>
<path d="M1277 1013 c-10 -9 -9 -25 1 -19 4 2 14 -5 21 -16 11 -18 11 -20 -3
-15 -10 4 -13 1 -10 -7 3 -8 1 -17 -5 -21 -6 -3 -11 -14 -11 -23 0 -12 4 -10
13 8 8 14 19 24 25 23 7 -2 12 1 12 7 0 17 -36 70 -43 63z"/>
<path d="M746 981 c-16 -25 -34 -91 -26 -91 6 0 10 8 10 18 0 10 5 23 12 30 7
7 8 12 4 12 -5 0 -3 7 4 15 7 9 10 18 7 21 -3 3 -8 1 -11 -5z"/>
<path d="M1261 964 c0 -11 3 -14 6 -6 3 7 2 16 -1 19 -3 4 -6 -2 -5 -13z"/>
<path d="M2426 942 c-4 -13 -5 -26 -2 -29 10 -11 18 4 14 29 l-4 23 -8 -23z"/>
<path d="M1322 910 c0 -14 2 -19 5 -12 2 6 2 18 0 25 -3 6 -5 1 -5 -13z"/>
<path d="M1288 895 c-3 -15 -1 -25 7 -25 6 0 11 9 10 20 -2 30 -12 34 -17 5z"/>
<path d="M1350 900 c0 -11 70 -11 115 0 23 6 12 8 -42 9 -43 1 -73 -3 -73 -9z"/>
<path d="M1533 903 c9 -2 23 -2 30 0 6 3 -1 5 -18 5 -16 0 -22 -2 -12 -5z"/>
<path d="M736 885 c-3 -8 -24 -15 -53 -18 l-48 -3 53 -2 c34 -1 52 2 52 10 0
6 9 1 20 -12 11 -13 22 -21 25 -18 3 3 -6 17 -19 31 -18 20 -26 23 -30 12z"/>
<path d="M2152 887 c-6 -6 -13 -26 -16 -42 -6 -27 -5 -27 7 5 l14 35 120 3
120 3 -4 -43 c-3 -24 -6 -74 -7 -113 l-3 -70 4 68 c4 68 18 90 26 40 2 -16 3
4 3 42 -1 39 -5 73 -11 77 -18 14 -241 9 -253 -5z"/>
<path d="M2428 775 c-6 -107 -5 -133 7 -145 13 -12 15 -6 14 55 -1 39 -4 104
-8 145 -6 74 -6 74 -13 -55z"/>
<path d="M603 883 c9 -2 23 -2 30 0 6 3 -1 5 -18 5 -16 0 -22 -2 -12 -5z"/>
<path d="M1568 883 c7 -3 16 -2 19 1 4 3 -2 6 -13 5 -11 0 -14 -3 -6 -6z"/>
<path d="M1720 880 l-45 -7 45 -4 c25 -2 -52 -6 -170 -9 l-215 -6 215 1 c133
0 214 4 212 10 -2 5 5 12 15 16 22 9 6 9 -57 -1z"/>
<path d="M1816 882 c7 -4 14 -18 17 -32 4 -21 4 -20 6 8 1 24 -3 32 -16 32
-12 0 -14 -3 -7 -8z"/>
<path d="M1398 873 c23 -2 61 -2 85 0 23 2 4 4 -43 4 -47 0 -66 -2 -42 -4z"/>
<path d="M2188 873 c7 -3 16 -2 19 1 4 3 -2 6 -13 5 -11 0 -14 -3 -6 -6z"/>
<path d="M1780 867 c0 -2 7 -26 16 -53 18 -52 34 -78 34 -53 0 8 -5 20 -11 26
-6 6 -11 27 -12 47 -1 22 -6 36 -14 36 -7 0 -13 -1 -13 -3z"/>
<path d="M2345 860 c-3 -5 1 -10 9 -10 9 0 16 5 16 10 0 6 -4 10 -9 10 -6 0
-13 -4 -16 -10z"/>
<path d="M1298 853 c7 -3 16 -2 19 1 4 3 -2 6 -13 5 -11 0 -14 -3 -6 -6z"/>
<path d="M626 841 c-5 -8 84 -3 93 5 2 2 -16 4 -42 4 -25 0 -48 -4 -51 -9z"/>
<path d="M731 834 c0 -11 3 -14 6 -6 3 7 2 16 -1 19 -3 4 -6 -2 -5 -13z"/>
<path d="M2320 841 c0 -6 -26 -12 -57 -14 -44 -2 -38 -4 25 -4 46 0 82 0 80 2
-16 13 -48 24 -48 16z"/>
<path d="M1288 833 c6 -2 18 -2 25 0 6 3 1 5 -13 5 -14 0 -19 -2 -12 -5z"/>
<path d="M2170 815 c-7 -8 -17 -12 -23 -8 -6 3 -7 1 -3 -6 4 -6 12 -9 17 -6 5
3 6 -2 3 -12 -3 -10 2 -5 11 10 18 32 15 46 -5 22z"/>
<path d="M585 810 c-3 -5 -12 -7 -19 -4 -17 6 -30 -113 -15 -136 8 -11 9 -7 4
14 -5 23 -3 27 9 23 13 -5 16 3 18 46 l1 52 7 -65 7 -65 1 57 c1 31 5 63 8 72
7 17 -11 22 -21 6z m-18 -72 c-2 -13 -4 -3 -4 22 0 25 2 35 4 23 2 -13 2 -33
0 -45z"/>
<path d="M1843 803 c-14 -5 69 -83 88 -83 9 0 6 5 -6 12 -23 14 -36 25 -55 54
-8 11 -20 19 -27 17z"/>
<path d="M2092 769 c-27 -33 -21 -39 10 -10 11 11 26 17 34 14 8 -3 14 -1 14
5 0 8 -25 24 -33 21 -1 0 -12 -13 -25 -30z"/>
<path d="M2137 752 c-12 -2 -16 -9 -13 -19 4 -11 0 -13 -17 -9 -12 3 -16 3
-10 0 10 -4 10 -8 0 -17 -23 -21 -56 -37 -79 -37 -12 0 -19 -3 -15 -6 15 -16
79 10 118 46 44 41 47 49 16 42z"/>
<path d="M1847 736 c-4 -10 0 -12 14 -9 10 3 16 9 13 14 -8 13 -21 11 -27 -5z"/>
<path d="M2060 720 c0 -5 5 -10 10 -10 6 0 10 5 10 10 0 6 -4 10 -10 10 -5 0
-10 -4 -10 -10z"/>
<path d="M1878 713 c7 -3 16 -2 19 1 4 3 -2 6 -13 5 -11 0 -14 -3 -6 -6z"/>
<path d="M1963 713 c9 -2 23 -2 30 0 6 3 -1 5 -18 5 -16 0 -22 -2 -12 -5z"/>
<path d="M1880 690 c0 -6 7 -10 15 -10 8 0 15 2 15 4 0 2 -7 6 -15 10 -8 3
-15 1 -15 -4z"/>
<path d="M1985 690 c-3 -5 3 -10 14 -10 11 0 23 5 26 10 3 6 -3 10 -14 10 -11
0 -23 -4 -26 -10z"/>
<path d="M570 666 c0 -13 -6 -26 -12 -28 -9 -3 -5 -16 12 -41 14 -20 29 -37
33 -37 5 0 5 5 1 11 -3 6 -1 15 6 19 9 5 9 9 1 14 -6 4 -11 2 -11 -5 0 -8 -4
-8 -15 1 -11 9 -13 23 -9 51 4 22 4 39 0 39 -3 0 -6 -11 -6 -24z"/>
<path d="M1958 663 c7 -3 16 -2 19 1 4 3 -2 6 -13 5 -11 0 -14 -3 -6 -6z"/>
<path d="M611 644 c0 -11 3 -14 6 -6 3 7 2 16 -1 19 -3 4 -6 -2 -5 -13z"/>
<path d="M586 641 c-4 -7 -5 -15 -2 -18 9 -9 19 4 14 18 -4 11 -6 11 -12 0z"/>
<path d="M2365 639 c-4 -6 -5 -12 -2 -15 2 -3 7 2 10 11 7 17 1 20 -8 4z"/>
<path d="M2408 623 c0 -10 -1 -25 0 -34 1 -9 -10 -21 -24 -28 -31 -14 -37 -14
-28 1 4 7 3 8 -5 4 -6 -4 -8 -12 -5 -18 5 -7 2 -9 -7 -6 -11 4 -15 -1 -14 -17
0 -13 4 -27 8 -31 4 -5 5 -1 2 7 -6 17 21 46 32 35 4 -4 1 -11 -7 -16 -8 -5
-12 -12 -9 -15 13 -12 79 69 79 97 0 30 -19 49 -22 21z m-13 -73 c-3 -5 -12
-10 -18 -10 -7 0 -6 4 3 10 19 12 23 12 15 0z"/>
<path d="M2310 583 c-19 -14 -27 -23 -17 -19 10 3 25 6 32 6 8 0 19 9 25 20
14 26 3 24 -40 -7z"/>
<path d="M2370 590 c0 -5 5 -10 10 -10 6 0 10 5 10 10 0 6 -4 10 -10 10 -5 0
-10 -4 -10 -10z"/>
<path d="M705 553 c27 -16 93 -17 740 -14 391 2 712 5 715 8 3 2 -312 4 -700
3 -491 -1 -716 1 -740 9 -47 15 -51 13 -15 -6z"/>
<path d="M648 553 c7 -3 16 -2 19 1 4 3 -2 6 -13 5 -11 0 -14 -3 -6 -6z"/>
<path d="M680 536 c0 -19 -4 -20 -32 -5 -16 9 -19 8 -16 -3 4 -8 20 -12 49
-11 24 0 36 -1 26 -4 -23 -6 -17 -25 9 -31 10 -2 53 -5 94 -7 l75 -3 -77 7
c-70 6 -99 14 -87 25 2 2 67 0 144 -5 77 -4 401 -7 720 -7 l580 2 -695 7
c-683 6 -739 9 -776 40 -11 9 -14 8 -14 -5z"/>
<path d="M1058 473 c12 -2 32 -2 45 0 12 2 2 4 -23 4 -25 0 -35 -2 -22 -4z"/>
<path d="M1208 473 c7 -3 16 -2 19 1 4 3 -2 6 -13 5 -11 0 -14 -3 -6 -6z"/>
<path d="M1338 473 c34 -2 90 -2 125 0 34 2 6 3 -63 3 -69 0 -97 -1 -62 -3z"/>
<path d="M1618 473 c12 -2 32 -2 45 0 12 2 2 4 -23 4 -25 0 -35 -2 -22 -4z"/>
<path d="M1798 473 c23 -2 61 -2 85 0 23 2 4 4 -43 4 -47 0 -66 -2 -42 -4z"/>
<path d="M2018 473 c12 -2 32 -2 45 0 12 2 2 4 -23 4 -25 0 -35 -2 -22 -4z"/>
<path d="M2178 473 c12 -2 32 -2 45 0 12 2 2 4 -23 4 -25 0 -35 -2 -22 -4z"/>
<path d="M2288 1793 c7 -3 16 -2 19 1 4 3 -2 6 -13 5 -11 0 -14 -3 -6 -6z"/>
</g>
</svg>
