<?xml version="1.0" standalone="no"?>
<svg xmlns="http://www.w3.org/2000/svg" viewBox="0 0 1200.000000 1045.000000" width="100%">
<rect width="100%" height="100%" fill="#111111"/>
<g transform="translate(0.000000,1045.000000) scale(0.100000,-0.100000)" fill="#888888" stroke="none">
  <path d="M5945 8844 c-38 -8 -106 -21 -150 -28 -78 -13 -220 -52 -240 -66 -5 -3 -44 -19 -85 -34 -41 -15 -88 -34 -105 -42 -16 -7 -49 -20 -73 -29 -23 -8 -77 -38 -120 -66 -42 -29 -122 -83 -177 -120 -87 -58 -117 -87 -230 -219 -116 -135 -138 -167 -207 -301 -43 -83 -78 -157 -78 -165 0 -8 -10 -25 -23 -38 -22 -22 -29 -23 -206 -24 -101 0 -187 -4 -192 -9 -4 -4 -9 -49 -11 -99 -2 -58 -8 -97 -17 -107 -12 -15 -43 -17 -261 -17 -136 0 -303 4 -371 10 -82 6 -144 6 -184 0 -33 -6 -104 -15 -157 -20 -59 -5 -107 -15 -120 -24 -12 -9 -33 -16 -46 -16 -26 0 -104 -29 -175 -65 -26 -14 -52 -25 -57 -25 -15 0 -159 -118 -208 -171 -126 -136 -266 -402 -291 -554 -13 -78 -14 -495 -6 -1806 5 -886 4 -1085 -7 -1130 -11 -43 -12 -142 -7 -499 4 -247 12 -472 18 -505 10 -59 96 -268 126 -309 8 -12 26 -37 39 -56 57 -86 245 -258 331 -302 17 -9 56 -29 87 -46 64 -33 172 -69 257 -83 86 -15 6286 -23 6376 -8 39 6 80 17 92 25 12 8 28 14 35 14 17 0 132 73 210 133 37 29 92 84 123 122 30 39 70 88 88 110 17 22 43 62 57 90 14 27 33 61 43 75 10 14 17 43 17 68 0 24 5 53 12 65 9 17 12 495 14 2022 1 1924 1 2003 -18 2088 -10 48 -23 96 -28 105 -5 9 -23 51 -41 92 -17 41 -40 84 -50 96 -11 11 -19 24 -19 28 0 16 -135 176 -152 182 -10 3 -18 9 -18 13 0 12 -166 140 -196 151 -13 5 -37 19 -52 29 -36 27 -178 76 -272 95 -53 11 -174 17 -420 21 -190 3 -355 8 -367 11 -21 4 -23 10 -23 74 0 38 -4 80 -10 94 l-10 26 -173 0 c-161 0 -175 1 -195 20 -12 12 -22 28 -22 38 -1 23 -48 110 -107 194 -84 122 -248 322 -289 353 -41 31 -127 103 -203 171 -25 22 -89 65 -141 96 -52 30 -111 64 -130 76 -66 40 -159 82 -182 82 -13 1 -41 8 -63 16 -22 9 -58 19 -80 23 -22 5 -96 25 -165 46 l-125 38 -250 3 c-193 2 -266 0 -320 -12z"/>

</g>
<g transform="translate(0.000000,1045.000000) scale(0.100000,-0.100000)" fill="#C0C0C0" stroke="none">
  <path d="M5718 8743 c6 -2 18 -2 25 0 6 3 1 5 -13 5 -14 0 -19 -2 -12 -5z"/>
  <path d="M6168 8713 c7 -3 16 -2 19 1 4 3 -2 6 -13 5 -11 0 -14 -3 -6 -6z"/>
  <path d="M5425 8670 c-4 -6 7 -10 24 -10 17 0 31 5 31 10 0 6 -11 10 -24 10 -14 0 -28 -4 -31 -10z"/>
  <path d="M5138 8503 c7 -3 16 -2 19 1 4 3 -2 6 -13 5 -11 0 -14 -3 -6 -6z"/>
  <path d="M7278 8503 c7 -3 16 -2 19 1 4 3 -2 6 -13 5 -11 0 -14 -3 -6 -6z"/>
  <path d="M5005 8420 c-3 -5 -2 -10 4 -10 5 0 13 5 16 10 3 6 2 10 -4 10 -5 0 -13 -4 -16 -10z"/>
  <path d="M5410 8400 c-12 -8 -12 -10 2 -15 19 -7 38 1 38 16 0 12 -21 11 -40 -1z"/>
  <path d="M4667 8053 c-4 -3 -7 -11 -7 -17 0 -6 5 -5 12 2 6 6 9 14 7 17 -3 3 -9 2 -12 -2z"/>
  <path d="M4704 7936 c-8 -22 3 -33 18 -18 9 9 9 15 0 24 -9 9 -13 7 -18 -6z"/>
  <path d="M7531 7934 c0 -11 3 -14 6 -6 3 7 2 16 -1 19 -3 4 -6 -2 -5 -13z"/>
  <path d="M4550 7854 c0 -8 5 -12 10 -9 6 3 10 10 10 16 0 5 -4 9 -10 9 -5 0 -10 -7 -10 -16z"/>
  <path d="M7575 7860 c3 -5 8 -10 11 -10 2 0 4 5 4 10 0 6 -5 10 -11 10 -5 0 -7 -4 -4 -10z"/>
  <path d="M4810 7820 c0 -5 5 -10 10 -10 6 0 10 5 10 10 0 6 -4 10 -10 10 -5 0 -10 -4 -10 -10z"/>
  <path d="M4470 7690 c-13 -9 -13 -10 0 -10 8 0 22 5 30 10 13 9 13 10 0 10 -8 0 -22 -5 -30 -10z"/>
  <path d="M5260 7646 c0 -8 5 -18 10 -21 6 -3 10 3 10 14 0 12 -4 21 -10 21 -5 0 -10 -6 -10 -14z"/>
  <path d="M7160 7603 c0 -68 16 -86 24 -27 9 67 8 74 -9 74 -11 0 -15 -12 -15 -47z"/>
  <path d="M4777 7584 c-8 -8 1 -24 14 -24 5 0 9 7 9 15 0 15 -12 20 -23 9z"/>
  <path d="M3170 7441 c0 -4 11 -6 25 -3 14 2 25 6 25 8 0 2 -11 4 -25 4 -14 0 -25 -4 -25 -9z"/>
  <path d="M2900 7400 c0 -5 4 -10 9 -10 6 0 13 5 16 10 3 6 -1 10 -9 10 -9 0 -16 -4 -16 -10z"/>
  <path d="M2790 7360 c0 -5 9 -10 19 -10 11 0 23 5 26 10 4 6 -5 10 -19 10 -14 0 -26 -4 -26 -10z"/>
  <path d="M2988 7065 c-87 -30 -125 -51 -252 -138 -75 -52 -151 -157 -203 -282 l-38 -90 -3 -262 c-3 -254 -3 -262 18 -280 19 -19 36 -20 345 -17 180 2 341 8 363 13 33 9 41 18 64 68 14 32 30 74 36 94 5 20 26 60 46 90 20 30 51 76 69 103 55 82 175 196 207 196 5 0 22 12 39 26 17 14 52 32 77 40 25 7 58 22 73 34 35 24 133 40 255 40 90 0 213 -16 231 -30 6 -5 38 -19 73 -33 35 -14 77 -37 93 -51 17 -15 38 -26 46 -26 9 0 23 -7 32 -15 27 -26 115 -95 121 -95 6 0 50 -60 117 -160 43 -64 103 -195 103 -227 0 -12 12 -31 26 -42 26 -20 35 -20 1010 -21 586 0 993 -4 1008 -10 14 -5 29 -17 34 -27 17 -35 31 -130 37 -248 5 -127 24 -214 53 -255 10 -14 24 -40 31 -58 8 -18 27 -42 42 -53 16 -11 29 -27 29 -35 0 -17 97 -109 145 -139 19 -11 60 -36 92 -55 57 -34 140 -67 297 -115 103 -32 298 -49 431 -37 109 10 312 62 354 91 14 10 37 21 51 24 24 6 66 35 188 128 74 57 148 150 193 242 21 43 42 84 47 90 20 27 43 188 45 319 2 82 7 142 13 148 16 16 371 24 469 12 53 -7 85 -7 98 0 14 7 23 6 36 -6 24 -22 28 -21 46 15 14 26 16 73 13 347 -3 299 -4 319 -24 357 -11 22 -27 57 -33 78 -8 23 -23 43 -37 49 -13 6 -33 26 -44 45 -10 18 -26 33 -33 33 -8 0 -22 9 -32 20 -10 11 -27 22 -39 26 -11 3 -30 14 -41 23 -11 10 -47 28 -80 40 -126 48 -158 48 -3305 49 l-2935 0 -97 -33z"/>
  <path d="M2420 7075 c0 -8 7 -15 15 -15 8 0 15 7 15 15 0 8 -7 15 -15 15 -8 0 -15 -7 -15 -15z"/>
  <path d="M4004 6385 c-121 -29 -192 -65 -266 -133 -70 -64 -148 -166 -148 -193 0 -8 -11 -36 -24 -64 -14 -27 -32 -77 -42 -110 -10 -33 -28 -73 -41 -88 -13 -16 -23 -37 -23 -47 0 -41 -28 -44 -427 -48 -228 -3 -393 -1 -410 5 -44 15 -150 1 -167 -22 -13 -17 -15 -156 -15 -1008 l-1 -988 26 -25 c23 -24 29 -25 107 -20 45 4 131 6 190 5 90 -1 112 2 128 17 10 9 19 26 19 37 0 21 56 195 69 212 4 5 18 35 31 65 12 30 39 74 59 98 106 128 197 225 220 235 14 6 37 24 51 40 24 27 60 51 145 98 22 12 53 32 68 45 16 13 38 24 50 24 12 0 38 9 58 19 20 11 54 23 75 26 22 4 66 16 99 27 33 11 96 24 140 28 44 5 116 14 159 19 51 7 92 8 115 2 20 -6 95 -17 166 -26 136 -18 196 -32 280 -67 28 -11 80 -29 118 -39 75 -20 176 -73 237 -124 22 -19 49 -37 60 -40 11 -4 20 -10 20 -15 0 -5 18 -28 40 -52 95 -102 228 -332 264 -458 27 -94 23 -92 177 -90 74 0 382 -4 684 -10 303 -6 697 -13 878 -16 377 -7 350 1 352 -109 2 -83 21 -184 45 -236 11 -24 20 -55 20 -68 0 -14 18 -43 45 -72 25 -26 45 -53 45 -58 0 -5 38 -41 84 -79 115 -95 184 -118 348 -116 95 1 125 5 160 22 24 11 61 25 84 31 22 6 51 23 65 37 13 14 36 32 51 40 31 16 98 102 128 166 12 24 30 60 41 80 10 20 19 45 19 54 0 15 17 57 80 200 34 76 21 74 593 74 398 0 507 3 515 13 6 7 14 53 17 102 7 95 6 464 0 476 -3 3 -9 312 -15 685 -5 373 -13 691 -18 706 l-7 27 -255 4 -255 3 -26 -25 c-19 -20 -27 -41 -33 -85 -4 -34 -19 -81 -36 -115 -17 -31 -30 -61 -30 -67 0 -6 -11 -27 -24 -46 -13 -20 -29 -51 -35 -71 -7 -20 -21 -39 -32 -42 -10 -4 -27 -21 -36 -38 -24 -46 -182 -196 -228 -217 -22 -10 -58 -32 -80 -50 -59 -47 -248 -136 -340 -161 -116 -30 -228 -41 -415 -42 -181 0 -295 12 -355 38 -22 9 -78 27 -125 40 -182 51 -308 107 -336 150 -9 14 -22 25 -30 25 -31 0 -224 215 -224 249 0 5 -16 28 -35 51 -19 23 -35 49 -35 57 0 8 -11 34 -25 57 -14 24 -33 76 -44 116 -28 111 -24 109 -276 110 -115 0 -334 4 -485 10 -151 5 -513 12 -803 16 -452 6 -530 9 -543 22 -12 11 -15 36 -13 106 5 185 -36 295 -175 470 -37 46 -153 107 -241 126 -33 7 -76 16 -95 21 -46 12 -93 10 -156 -6z"/>
  <path d="M3985 4370 c-108 -9 -158 -21 -184 -44 -17 -14 -123 -60 -178 -77 -18 -6 -33 -14 -33 -19 0 -5 -17 -18 -37 -29 -21 -10 -79 -62 -130 -115 -72 -76 -95 -107 -109 -148 -9 -29 -25 -64 -35 -78 -9 -14 -20 -47 -23 -74 -3 -27 -13 -57 -22 -67 -13 -14 -15 -47 -15 -188 0 -94 -3 -171 -7 -172 -34 -2 -321 -2 -462 0 -96 1 -183 -1 -193 -4 -40 -16 -43 -45 -37 -390 l6 -330 29 -44 c17 -24 38 -59 48 -77 9 -19 24 -34 33 -34 8 0 22 -16 30 -35 8 -21 27 -41 47 -51 17 -9 41 -24 52 -34 36 -32 155 -72 244 -83 131 -15 6084 -21 6136 -6 84 24 202 73 260 107 85 51 181 146 213 212 15 30 36 71 48 90 31 50 53 225 56 448 2 169 1 185 -16 194 -11 6 -153 10 -377 11 -330 0 -360 -1 -378 -17 -11 -10 -23 -31 -26 -47 -11 -50 -116 -252 -149 -288 -75 -80 -153 -153 -181 -168 -16 -9 -46 -29 -66 -45 -31 -25 -77 -46 -209 -93 -19 -7 -89 -16 -155 -19 -105 -6 -128 -5 -185 13 -36 12 -73 21 -83 21 -32 0 -225 98 -284 144 -80 62 -143 127 -143 148 0 6 -16 28 -35 50 -19 23 -40 57 -46 77 -7 20 -25 59 -40 87 -16 28 -29 60 -29 72 0 11 -11 34 -24 49 l-24 28 -1011 5 c-752 4 -1013 8 -1022 17 -16 16 -29 80 -40 203 -18 203 -24 232 -67 320 -22 47 -52 96 -65 108 -14 13 -32 40 -41 61 -10 21 -30 45 -46 54 -15 10 -47 33 -70 52 -23 19 -47 35 -54 35 -7 0 -23 11 -36 25 -13 14 -31 25 -39 25 -9 0 -43 13 -76 29 -33 16 -104 43 -158 61 -94 32 -105 33 -280 35 -100 2 -227 -1 -282 -5z"/>
  <path d="M2191 2744 c0 -11 3 -14 6 -6 3 7 2 16 -1 19 -3 4 -6 -2 -5 -13z"/>
  <path d="M2376 2322 c-3 -6 -1 -14 5 -17 15 -10 25 3 12 16 -7 7 -13 7 -17 1z"/>
  <path d="M9805 2210 c-3 -5 -1 -10 4 -10 6 0 11 5 11 10 0 6 -2 10 -4 10 -3 0 -8 -4 -11 -10z"/>
  <path d="M9680 2100 c0 -23 10 -26 28 -8 18 18 15 28 -8 28 -13 0 -20 -7 -20 -20z"/>
  <path d="M9475 1950 c-3 -5 1 -10 9 -10 9 0 16 5 16 10 0 6 -4 10 -9 10 -6 0 -13 -4 -16 -10z"/>
</g>
  <path d="M6335 8556 c44 -8 114 -19 155 -25 183 -26 450 -137 650 -272 101 -68 299 -253 346 -321 16 -24 43 -61 60 -83 17 -22 41 -59 54 -82 39 -71 34 -73 -221 -73 -184 0 -220 -2 -233 -16 -12 -11 -16 -36 -16 -94 0 -68 -3 -81 -19 -90 -31 -16 -1738 -14 -1771 3 -24 12 -25 17 -26 100 0 51 -5 92 -12 99 -8 8 -76 11 -218 10 -138 -1 -212 2 -221 9 -28 24 -10 77 72 213 47 78 225 239 365 330 25 16 56 37 70 46 14 10 46 27 70 40 25 12 52 28 60 35 19 16 220 95 330 128 168 52 361 68 505 43z"/>
</svg>